<svg xmlns="http://www.w3.org/2000/svg" xmlns:xlink="http://www.w3.org/1999/xlink" viewBox="0 0 1230.84 933.24"><defs><style>.cls-1{fill:url(#linear-gradient);}.cls-2{fill:url(#linear-gradient-2);}.cls-3{fill:url(#linear-gradient-3);}.cls-4{fill:url(#linear-gradient-4);}.cls-5{fill:url(#linear-gradient-5);}.cls-6{fill:url(#linear-gradient-6);}.cls-7{fill:url(#linear-gradient-7);}.cls-8{fill:#47cf73;}.cls-9{fill:url(#linear-gradient-8);}.cls-10{fill:url(#linear-gradient-9);}.cls-11{fill:url(#linear-gradient-10);}.cls-12{fill:url(#linear-gradient-11);}.cls-13{fill:url(#linear-gradient-12);}.cls-14{fill:url(#linear-gradient-13);}.cls-15{fill:url(#linear-gradient-14);}.cls-16{fill:url(#linear-gradient-15);}.cls-17{fill:url(#linear-gradient-16);}.cls-18{fill:url(#linear-gradient-17);}.cls-19{fill:url(#linear-gradient-18);}.cls-20{fill:url(#linear-gradient-19);}</style><linearGradient id="linear-gradient" x1="127.18" y1="652.35" x2="147.18" y2="652.35" gradientTransform="matrix(1, 0, 0, -1, 0, 933.24)" gradientUnits="userSpaceOnUse"><stop offset="0" stop-color="#3fcd85"/><stop offset="1" stop-color="#3fcd86"/></linearGradient><linearGradient id="linear-gradient-2" x1="127.18" y1="502.13" x2="147.18" y2="502.13" gradientTransform="matrix(1, 0, 0, -1, 0, 933.24)" gradientUnits="userSpaceOnUse"><stop offset="0" stop-color="#3fcd85"/><stop offset="1" stop-color="#3fcd85"/></linearGradient><linearGradient id="linear-gradient-3" x1="202.03" y1="363.64" x2="127.18" y2="363.64" gradientTransform="matrix(1, 0, 0, -1, 0, 933.24)" gradientUnits="userSpaceOnUse"><stop offset="0" stop-color="#3bcc8c"/><stop offset="1" stop-color="#3fcd85"/></linearGradient><linearGradient id="linear-gradient-4" x1="438.92" y1="192.15" x2="202.2" y2="192.15" gradientTransform="matrix(1, 0, 0, -1, 0, 933.24)" gradientUnits="userSpaceOnUse"><stop offset="0" stop-color="#2ec8ae"/><stop offset="1" stop-color="#3bcc8d"/></linearGradient><linearGradient id="linear-gradient-5" x1="620.41" y1="135.38" x2="444.66" y2="135.38" gradientTransform="matrix(1, 0, 0, -1, 0, 933.24)" gradientUnits="userSpaceOnUse"><stop offset="0" stop-color="#26c5c5"/><stop offset="1" stop-color="#2ec8b0"/></linearGradient><linearGradient id="linear-gradient-6" x1="821.75" y1="135.38" x2="628.55" y2="135.38" gradientTransform="matrix(1, 0, 0, -1, 0, 933.24)" gradientUnits="userSpaceOnUse"><stop offset="0" stop-color="#1ec1dc"/><stop offset="1" stop-color="#26c5c7"/></linearGradient><linearGradient id="linear-gradient-7" x1="905.9" y1="135.38" x2="831.68" y2="135.38" gradientTransform="matrix(1, 0, 0, -1, 0, 933.24)" gradientUnits="userSpaceOnUse"><stop offset="0" stop-color="#0ebeff"/><stop offset="1" stop-color="#1ec1dc"/></linearGradient><linearGradient id="linear-gradient-8" x1="79.98" y1="500.71" x2="134.91" y2="500.71" gradientTransform="matrix(1, 0, 0, -1, 0, 933.24)" gradientUnits="userSpaceOnUse"><stop offset="0" stop-color="#40ce7e"/><stop offset="1" stop-color="#3fcd81"/></linearGradient><linearGradient id="linear-gradient-9" x1="310.85" y1="207.99" x2="119.67" y2="207.99" gradientTransform="matrix(1, 0, 0, -1, 0, 933.24)" gradientUnits="userSpaceOnUse"><stop offset="0" stop-color="#37ca9b"/><stop offset="1" stop-color="#3fcd85"/></linearGradient><linearGradient id="linear-gradient-10" x1="466.48" y1="104.47" x2="319.4" y2="104.47" gradientTransform="matrix(1, 0, 0, -1, 0, 933.24)" gradientUnits="userSpaceOnUse"><stop offset="0" stop-color="#2cc7b0"/><stop offset="1" stop-color="#35c9a0"/></linearGradient><linearGradient id="linear-gradient-11" x1="957.73" y1="95.34" x2="485.47" y2="95.34" gradientTransform="matrix(1, 0, 0, -1, 0, 933.24)" gradientUnits="userSpaceOnUse"><stop offset="0" stop-color="#0ebeff"/><stop offset="1" stop-color="#2dc7b6"/></linearGradient><linearGradient id="linear-gradient-12" x1="1068.77" y1="95.34" x2="973.8" y2="95.34" gradientTransform="matrix(1, 0, 0, -1, 0, 933.24)" gradientUnits="userSpaceOnUse"><stop offset="0" stop-color="#0ebeff"/><stop offset="0.97" stop-color="#12c0ed"/><stop offset="1" stop-color="#47cf73"/></linearGradient><linearGradient id="linear-gradient-13" x1="689.94" y1="125.07" x2="130.99" y2="125.07" gradientTransform="matrix(1, 0, 0, -1, 0, 933.24)" gradientUnits="userSpaceOnUse"><stop offset="0" stop-color="#0ebeff"/><stop offset="0.03" stop-color="#21c4ce"/><stop offset="1" stop-color="#47cf73"/></linearGradient><linearGradient id="linear-gradient-14" x1="1128.48" y1="53.54" x2="712.65" y2="53.54" gradientTransform="matrix(1, 0, 0, -1, 0, 933.24)" gradientUnits="userSpaceOnUse"><stop offset="0" stop-color="#0fbff8"/><stop offset="1" stop-color="#1fc3d2"/></linearGradient><linearGradient id="linear-gradient-15" x1="1230.84" y1="53.54" x2="1142.35" y2="53.54" gradientTransform="matrix(1, 0, 0, -1, 0, 933.24)" gradientUnits="userSpaceOnUse"><stop offset="0" stop-color="#0ebeff"/><stop offset="1" stop-color="#0fbffa"/></linearGradient><linearGradient id="linear-gradient-16" x1="198.56" y1="186.37" x2="31.63" y2="186.37" gradientTransform="matrix(1, 0, 0, -1, 0, 933.24)" gradientUnits="userSpaceOnUse"><stop offset="0" stop-color="#3bcc8c"/><stop offset="1" stop-color="#45ce76"/></linearGradient><linearGradient id="linear-gradient-17" x1="754.92" y1="41.83" x2="214.07" y2="41.83" gradientTransform="matrix(1, 0, 0, -1, 0, 933.24)" gradientUnits="userSpaceOnUse"><stop offset="0" stop-color="#1fc3d6"/><stop offset="1" stop-color="#3acb91"/></linearGradient><linearGradient id="linear-gradient-18" x1="871.29" y1="15" x2="767.04" y2="15" gradientTransform="matrix(1, 0, 0, -1, 0, 933.24)" gradientUnits="userSpaceOnUse"><stop offset="0" stop-color="#0ebeff"/><stop offset="1" stop-color="#1fc3d8"/></linearGradient><linearGradient id="linear-gradient-19" x1="1094.39" y1="15" x2="880.9" y2="15" gradientTransform="matrix(1, 0, 0, -1, 0, 933.24)" gradientUnits="userSpaceOnUse"><stop offset="0" stop-color="#0fbff6"/><stop offset="1" stop-color="#19c1e5"/></linearGradient></defs><title>Asset 5</title><g id="Layer_2" data-name="Layer 2"><g id="Layer_1-2" data-name="Layer 1"><g id="bg-1"><path class="cls-1" d="M137.18,171.6a10,10,0,0,0-10,10V380.17a10,10,0,0,0,20,0V181.6A10,10,0,0,0,137.18,171.6Z"/><path class="cls-2" d="M137.18,400.81a10,10,0,0,0-10,10V451.4a10,10,0,0,0,20,0V410.81A10,10,0,0,0,137.18,400.81Z"/><path class="cls-3" d="M137.18,470.38a10,10,0,0,0-10,10,325.81,325.81,0,0,0,56.58,184.06,10,10,0,1,0,16.54-11.26,305.81,305.81,0,0,1-53.12-172.8A10,10,0,0,0,137.18,470.38Z"/><path class="cls-4" d="M212.19,675.34a10,10,0,0,0-7.63,16.46A325.92,325.92,0,0,0,418.49,805.89c3.19.35,6.43.65,9.63.91a10,10,0,0,0,1.6-19.94c-3-.24-6.05-.53-9-.86A306,306,0,0,1,219.83,678.88,10,10,0,0,0,212.19,675.34Z"/><path class="cls-5" d="M610.41,787.86H454.66a10,10,0,1,0,0,20H610.41a10,10,0,0,0,0-20Z"/><path class="cls-6" d="M811.75,787.86H638.55a10,10,0,0,0,0,20h173.2a10,10,0,0,0,0-20Z"/><path class="cls-7" d="M895.9,787.86H841.68a10,10,0,0,0,0,20H895.9a10,10,0,0,0,0-20Z"/><path class="cls-8" d="M97.48,143A17.51,17.51,0,0,0,80,160.47v53a17.5,17.5,0,0,0,35,0v-53A17.5,17.5,0,0,0,97.48,143Z"/><path class="cls-9" d="M97.48,244.21A17.5,17.5,0,0,0,80,261.71V486.4A368.1,368.1,0,0,0,100.9,609.16a17.5,17.5,0,1,0,33-11.64A333.4,333.4,0,0,1,115,486.4V261.71A17.49,17.49,0,0,0,97.48,244.21Z"/><path class="cls-10" d="M137.16,631.33a17.51,17.51,0,0,0-15.5,25.6A370.5,370.5,0,0,0,285.59,817.34,17.5,17.5,0,1,0,301.11,786,337.37,337.37,0,0,1,152.69,640.73,17.5,17.5,0,0,0,137.16,631.33Z"/><path class="cls-11" d="M336.9,802.15a17.5,17.5,0,0,0-5.58,34.09A368.58,368.58,0,0,0,449,855.4a17.5,17.5,0,1,0,0-35,333.55,333.55,0,0,1-106.5-17.33A17.26,17.26,0,0,0,336.9,802.15Z"/><path class="cls-12" d="M940.23,820.4H503a17.5,17.5,0,1,0,0,35H940.23a17.5,17.5,0,0,0,0-35Z"/><path class="cls-13" d="M1051.27,820.4h-60a17.5,17.5,0,0,0,0,35h60a17.5,17.5,0,0,0,0-35Z"/><path class="cls-8" d="M54.76,0a12.5,12.5,0,0,0-12.5,12.5V56a12.5,12.5,0,0,0,25,0V12.5A12.5,12.5,0,0,0,54.76,0Z"/><path class="cls-8" d="M54.76,78.16a12.49,12.49,0,0,0-12.5,12.5V121a12.5,12.5,0,0,0,25,0V90.66A12.5,12.5,0,0,0,54.76,78.16Z"/><path class="cls-8" d="M54.76,143.08a12.5,12.5,0,0,0-12.5,12.5V261.71a12.5,12.5,0,0,0,25,0V155.58A12.5,12.5,0,0,0,54.76,143.08Z"/><path class="cls-8" d="M54.76,285.75a12.5,12.5,0,0,0-12.5,12.5V488.52A402.48,402.48,0,0,0,104.53,704a12.5,12.5,0,0,0,21.12-13.36A377.57,377.57,0,0,1,67.26,488.52V298.25A12.5,12.5,0,0,0,54.76,285.75Z"/><path class="cls-14" d="M143.49,724.13a12.49,12.49,0,0,0-9.65,20.43A402.5,402.5,0,0,0,445.94,892.2h231.5a12.5,12.5,0,0,0,0-25H445.94A377.63,377.63,0,0,1,153.15,728.7,12.46,12.46,0,0,0,143.49,724.13Z"/><path class="cls-15" d="M1116,867.2H725.15a12.5,12.5,0,1,0,0,25H1116a12.5,12.5,0,0,0,0-25Z"/><path class="cls-16" d="M1218.34,867.2h-63.49a12.5,12.5,0,0,0,0,25h63.49a12.5,12.5,0,0,0,0-25Z"/><path class="cls-8" d="M15,36A15,15,0,0,0,0,51v58.83a15,15,0,0,0,30,0V51A15,15,0,0,0,15,36Z"/><path class="cls-8" d="M15,136.13a15,15,0,0,0-15,15v229a15,15,0,0,0,30,0v-229A15,15,0,0,0,15,136.13Z"/><path class="cls-8" d="M15,408.52a15,15,0,0,0-15,15v75.19a435.41,435.41,0,0,0,15.94,117,15,15,0,0,0,28.9-8.07A405.2,405.2,0,0,1,30,498.71V423.52A15,15,0,0,0,15,408.52Z"/><path class="cls-17" d="M46.63,643.81a15,15,0,0,0-13.86,20.73,435.66,435.66,0,0,0,141.81,182.4,15,15,0,0,0,18-24,405.75,405.75,0,0,1-132-169.83A15,15,0,0,0,46.63,643.81Z"/><path class="cls-18" d="M229.09,849.57a15,15,0,0,0-7.37,28.07,434.7,434.7,0,0,0,212.81,55.6H739.92a15,15,0,0,0,0-30H434.53a404.61,404.61,0,0,1-198.1-51.74A14.92,14.92,0,0,0,229.09,849.57Z"/><path class="cls-19" d="M856.29,903.24H782a15,15,0,0,0,0,30h74.25a15,15,0,0,0,0-30Z"/><path class="cls-20" d="M1079.39,903.24H895.9a15,15,0,1,0,0,30h183.49a15,15,0,0,0,0-30Z"/></g></g></g></svg>